<svg width="10" height="6" viewBox="0 0 10 6" fill="none" xmlns="http://www.w3.org/2000/svg">
<path d="M1.94212 0.716847C1.65151 0.461886 1.20924 0.490785 0.954274 0.781394C0.699313 1.072 0.728211 1.51428 1.01882 1.76924L1.94212 0.716847ZM5.12832 4.44342L4.66667 4.96961L5.12836 5.37467L5.59001 4.96957L5.12832 4.44342ZM9.23721 1.7692C9.5278 1.51421 9.55666 1.07193 9.30167 0.781348C9.04668 0.490761 8.60441 0.461901 8.31382 0.716888L9.23721 1.7692ZM1.01882 1.76924L4.66667 4.96961L5.58996 3.91722L1.94212 0.716847L1.01882 1.76924ZM5.59001 4.96957L9.23721 1.7692L8.31382 0.716888L4.66662 3.91726L5.59001 4.96957Z" fill="white"/>
</svg>
