<svg width="31" height="31" viewBox="0 0 31 31" fill="none" xmlns="http://www.w3.org/2000/svg">
<path fill-rule="evenodd" clip-rule="evenodd" d="M15.7748 30.6386C24.0939 30.6386 30.8378 23.9229 30.8378 15.6386C30.8378 7.35434 24.0939 0.638611 15.7748 0.638611C7.45582 0.638611 0.711914 7.35434 0.711914 15.6386C0.711914 17.1666 0.94135 18.6413 1.36779 20.0303C1.47661 20.0498 1.65255 20.0944 1.90891 20.1692L1.50858 13.8967C1.50858 13.7817 1.70334 13.7264 1.88177 13.6757C1.9797 13.6479 2.07272 13.6215 2.12591 13.5874C2.27119 13.4959 5.26283 14.5837 5.42263 14.6559L9.24824 16.3792C10.2361 15.7582 11.4177 15.5079 12.5799 15.6764L16.0569 11.4549C16.1004 8.08545 18.8607 5.37061 22.2553 5.3658C25.4272 5.39949 28.0567 7.80626 28.3569 10.9399C28.6765 14.3286 26.1778 17.3323 22.7686 17.6548L16.9769 21.7704C16.6234 23.5754 15.3256 25.0532 13.5726 25.6404C10.885 26.5454 7.96497 25.111 7.05941 22.4346L5.04491 21.7704C4.89556 21.7231 2.15411 20.5874 1.41154 20.1703C3.34075 26.2396 9.04192 30.6386 15.7748 30.6386ZM25.3548 11.527C25.3548 13.2284 23.9672 14.6077 22.2555 14.6077C20.5438 14.6077 19.1562 13.2284 19.1562 11.527C19.1562 9.82564 20.5438 8.44637 22.2555 8.44637C23.9672 8.44637 25.3548 9.82564 25.3548 11.527ZM24.3238 11.5271C24.3238 12.6622 23.398 13.5824 22.256 13.5824C21.114 13.5824 20.1882 12.6622 20.1882 11.5271C20.1882 10.3919 21.114 9.47168 22.256 9.47168C23.398 9.47168 24.3238 10.3919 24.3238 11.5271ZM10.5807 23.5417C10.9971 23.7439 11.4571 23.8498 11.922 23.8498C12.2755 23.8498 12.6193 23.792 12.9583 23.6813C13.7379 23.4118 14.3723 22.8486 14.7306 22.1121C15.4764 20.5766 14.8275 18.7378 13.2876 17.9965C13.0261 17.8714 12.721 17.9773 12.5951 18.2324C12.4692 18.4923 12.5758 18.7956 12.8324 18.9207C12.8663 18.9352 12.9002 18.9496 12.9341 18.9689C13.951 19.4887 14.3432 20.7258 13.8203 21.7367C13.2973 22.7475 12.0479 23.1374 11.0359 22.6175C10.7744 22.4924 10.4693 22.5983 10.3434 22.8534C10.2175 23.1133 10.324 23.4166 10.5807 23.5417Z" fill="#FFB548"/>
</svg>
